<svg width="152" height="60" viewBox="0 0 152 60" fill="none" xmlns="http://www.w3.org/2000/svg">
<g clip-path="url(#clip0_183_121)">
<path d="M20.6678 10.2439H27.9931C32.4406 10.2439 34.7952 11.9512 34.7952 15.3658C34.7952 17.0732 34.0103 18.2927 32.4406 19.5122C34.7952 20.4878 35.8416 21.9512 35.8416 24.3902C35.8416 26.0976 35.0568 27.561 33.7487 28.5366C33.2254 29.0244 32.4406 29.2683 31.6557 29.5122C30.8709 29.7561 29.8244 29.7561 28.7779 29.7561H25.9001V24.6341H28.7779C29.3012 24.6341 29.8244 24.6341 30.086 24.3902C30.3476 24.1463 30.3476 23.9024 30.3476 23.6585C30.3476 22.9268 29.8244 22.6829 28.7779 22.6829L25.9001 23.1707V18.2927C26.9466 18.2927 29.5628 17.0732 29.5628 16.3415C29.5628 15.6098 29.0396 15.3658 27.9931 15.3658H26.9466V29.7561H20.9294L20.6678 10.2439Z" fill="#8328AE"/>
<path d="M45.2599 15.3658C47.3528 15.3658 49.1842 16.0976 50.7539 17.561C52.3236 19.0244 53.1084 20.7317 53.1084 22.6829C53.1084 24.6341 52.3236 26.5854 50.7539 27.8049C49.1842 29.2683 47.3528 30 44.9983 30C42.6437 30 40.8124 29.2683 39.2427 27.8049C37.673 26.3415 36.8881 24.6341 36.8881 22.439C36.8881 20.2439 37.673 18.5366 39.2427 17.0732C40.8124 15.6097 42.9053 15.3658 45.2599 15.3658ZM44.9983 20.7317C44.475 20.7317 43.9518 20.9756 43.4286 21.2195C42.9053 21.7073 42.9053 22.1951 42.6437 22.6829C42.6437 23.1707 42.9053 23.6585 43.167 24.1463C43.4286 24.6341 44.2134 24.878 44.7367 24.878C45.2599 24.878 45.7831 24.6341 46.3064 24.1463C46.8296 23.6585 47.0912 23.1707 47.0912 22.6829C47.0912 22.1951 46.8296 21.4634 46.568 21.2195C46.3064 20.7317 45.7831 20.7317 44.9983 20.7317Z" fill="#8328AE"/>
<path d="M69.0671 30H63.3115V21.9512C63.3115 21.2195 63.0499 20.7317 62.265 20.7317C61.4802 20.7317 61.2185 21.2195 61.2185 21.9512V30H55.463V21.9512C55.463 20 56.2478 18.5366 57.5559 17.3171C58.864 16.0976 60.4337 15.3658 62.5266 15.3658C64.6196 15.3658 66.4509 16.0976 67.759 17.561C68.8055 18.7805 69.3287 20.2439 69.3287 22.439L69.0671 30Z" fill="#8328AE"/>
<path d="M74.5611 15.8537H80.3167V27.8049C80.3167 30.2439 79.5318 32.1951 78.2237 33.9024C76.654 35.8537 74.2995 36.5854 71.4217 36.5854C70.6368 36.5854 69.5904 36.3415 68.5439 36.0976V30.9756C69.5904 31.4634 70.3752 31.7073 70.8984 31.7073C73.253 31.7073 74.2995 30.2439 74.2995 27.0732L74.5611 15.8537ZM77.4389 9.51221C78.2237 9.51221 79.0086 9.75611 79.5318 10.2439C80.0551 10.7317 80.3167 11.4634 80.3167 11.9512C80.3167 12.6829 80.0551 13.4146 79.5318 13.6585C78.747 14.3903 78.2237 14.6342 77.4389 14.6342C76.654 14.6342 75.8692 14.3903 75.3459 13.9024C74.8227 13.4146 74.5611 12.9268 74.5611 11.9512C74.5611 11.2195 74.8227 10.7317 75.3459 10.2439C75.8692 9.75611 76.654 9.51221 77.4389 9.51221Z" fill="#8328AE"/>
<path d="M91.043 15.6097C93.1359 15.6097 94.9672 16.3414 96.537 17.8049C98.1067 19.2683 98.8915 20.9756 98.8915 22.9268C98.8915 24.878 98.1067 26.8293 96.537 28.0488C94.9672 29.5122 93.1359 30.2439 90.7814 30.2439C88.4268 30.2439 86.5955 29.5122 85.0258 28.0488C83.4561 26.5853 82.6712 24.878 82.6712 22.6829C82.6712 20.4878 83.4561 18.7805 85.0258 17.3171C86.5955 15.8536 88.6884 15.6097 91.043 15.6097ZM90.7814 20.9756C90.2581 20.9756 89.7349 21.2195 89.2116 21.4634C88.6884 21.9512 88.6884 22.439 88.4268 22.9268C88.4268 23.4146 88.6884 23.9024 88.95 24.3902C89.2117 24.878 89.9965 25.1219 90.5197 25.1219C91.043 25.1219 91.5662 24.878 92.0894 24.3902C92.6127 23.9024 92.8743 23.4146 92.8743 22.9268C92.8743 22.439 92.6127 21.7073 92.3511 21.4634C91.8278 21.2195 91.3046 20.9756 90.7814 20.9756Z" fill="#8328AE"/>
<path d="M101.246 16.3414H107.002V24.3902C107.002 25.1219 107.263 25.6097 108.048 25.6097C108.833 25.6097 109.095 25.1219 109.095 24.3902V16.3414H114.85V24.3902C114.85 26.3414 114.065 27.8048 112.757 29.0244C111.449 30.2439 109.88 30.9756 107.787 30.9756C105.694 30.9756 103.862 30.2439 102.554 28.7805C101.508 27.5609 100.984 26.0975 100.984 23.9024L101.246 16.3414Z" fill="#8328AE"/>
<path d="M126.623 16.0975V21.7073C126.1 21.4634 125.838 21.4634 125.577 21.4634C124.53 21.4634 124.007 22.1951 124.007 23.6585V30.4878H118.251V22.6829C118.251 20.7317 118.775 19.0244 120.083 17.8049C121.391 16.5853 122.96 16.0975 125.053 16.0975C125.315 15.8536 125.838 16.0975 126.623 16.0975Z" fill="#8328AE"/>
<path d="M56.5095 43.9025L63.0499 44.1464C62.5267 47.3171 61.4802 49.7561 59.6489 51.4634C57.8176 53.1708 55.2014 54.1464 52.062 54.1464C48.9226 54.1464 46.3064 53.1708 44.2134 51.2195C42.1205 49.2683 41.074 46.8293 41.074 43.9025C41.074 40.9756 42.1205 38.5366 44.2134 36.5854C46.3064 34.6342 48.9226 33.6586 52.062 33.6586C55.2014 33.6586 57.8176 34.6342 59.9105 36.5854C61.2186 38.0488 62.2651 39.7561 63.0499 42.1952L56.5095 42.683C55.7246 40.4878 54.4165 39.5122 52.3236 39.5122C51.0155 39.5122 49.969 40 48.9226 40.7317C47.8761 41.4634 47.6145 42.683 47.6145 43.9025C47.6145 45.122 48.1377 46.3415 48.9226 47.0732C49.7074 47.8049 50.7539 48.2927 52.062 48.2927C53.3701 48.2927 54.4165 47.8049 55.2014 47.0732C55.9863 46.3415 56.5095 45.122 56.5095 43.9025Z" fill="black"/>
<path d="M72.9914 38.7805C75.0843 38.7805 76.9157 39.5122 78.4854 40.9756C80.0551 42.4391 80.8399 44.1464 80.8399 46.0976C80.8399 48.0488 80.0551 50 78.4854 51.4634C76.9157 52.9269 75.0843 53.6586 72.7298 53.6586C70.3752 53.6586 68.5439 52.9269 66.9742 51.4634C65.4045 50 64.6196 48.2927 64.6196 46.0976C64.6196 43.9025 65.4045 42.1952 66.9742 40.7317C68.5439 39.2683 70.6368 38.7805 72.9914 38.7805ZM72.7298 44.1464C72.2065 44.1464 71.6833 44.3903 71.1601 44.8781C70.6368 45.3659 70.6368 45.6098 70.6368 46.0976C70.6368 46.5854 70.8985 47.0732 71.1601 47.561C71.4217 48.0488 72.2065 48.2927 72.7298 48.2927C73.253 48.2927 73.7763 48.0488 74.2995 47.561C74.8227 47.0732 74.8227 46.5854 74.8227 46.0976C74.8227 45.6098 74.5611 44.8781 74.2995 44.6342C74.0379 44.3903 73.5146 44.1464 72.7298 44.1464Z" fill="black"/>
<path d="M88.9501 33.9025V53.4147H83.1945V33.9025H88.9501Z" fill="black"/>
<path d="M98.1067 33.9025V53.4147H92.3511V33.9025H98.1067Z" fill="black"/>
<path d="M116.42 47.0732H107.787C107.525 46.5854 107.525 46.3415 107.525 45.8537C107.525 45.3659 107.525 44.8781 107.787 44.3903H110.664C110.403 43.4147 109.88 42.683 108.833 42.683C108.048 42.683 107.525 42.9269 107.002 43.4147C106.479 43.9025 106.217 44.6342 106.217 45.6098C106.217 46.5854 106.479 47.3171 106.74 47.8049C107.002 48.2927 107.787 48.7805 108.571 48.7805C109.095 48.7805 109.618 48.5366 110.141 48.0488L113.281 51.7074C111.711 52.9269 110.141 53.4147 108.31 53.4147C105.955 53.4147 104.124 52.683 102.554 51.2196C100.985 49.7561 100.2 48.0488 100.2 45.8537C100.2 43.6586 100.985 41.9513 102.554 40.4878C104.124 39.0244 105.955 38.2927 108.31 38.2927C110.403 38.2927 112.496 39.0244 113.804 40.4878C115.112 41.9513 116.158 43.6586 116.158 45.6098C116.42 46.3415 116.42 46.5854 116.42 47.0732Z" fill="black"/>
<path d="M126.885 47.561V52.4391C126.1 52.683 125.315 52.9269 124.53 52.9269C122.699 52.9269 121.129 52.1952 119.821 50.9756C118.513 49.7561 117.99 48.0488 117.99 46.0976C117.99 44.1464 118.775 42.4391 120.344 40.9756C121.914 39.5122 123.745 38.7805 126.1 38.7805C127.408 38.7805 128.454 39.0244 129.501 39.5122C130.547 40 131.332 40.4878 132.117 41.2195C133.164 42.4391 133.687 44.3903 133.687 46.5854V51.2195C133.687 53.6586 132.902 55.8537 131.332 57.3171C129.762 58.7805 127.67 59.7561 125.315 59.7561C124.53 59.7561 123.484 59.5122 122.437 59.2683V54.3903C123.222 54.8781 124.007 54.8781 124.792 54.8781C125.838 54.8781 126.623 54.6342 127.146 53.9025C127.67 53.1708 127.931 52.4391 127.931 51.2195V45.8537C127.931 44.3903 127.408 43.6586 126.1 43.6586C125.577 43.6586 125.053 43.9025 124.53 44.1464C124.007 44.3903 124.007 44.8781 124.007 45.6098C124.007 46.0976 124.269 46.5854 124.53 47.0732C124.792 47.561 125.315 47.561 126.1 47.561C126.1 47.8049 126.623 47.561 126.885 47.561Z" fill="black"/>
<path d="M152 47.0732H143.367C143.105 46.5854 143.105 46.3415 143.105 45.8537C143.105 45.3659 143.105 44.8781 143.367 44.3903H146.244C145.983 43.4147 145.46 42.683 144.413 42.683C143.628 42.683 143.105 42.9269 142.582 43.4147C142.059 43.9025 141.797 44.6342 141.797 45.6098C141.797 46.5854 142.059 47.3171 142.32 47.8049C142.582 48.2927 143.367 48.7805 144.151 48.7805C144.675 48.7805 145.198 48.5366 145.721 48.0488L148.861 51.7074C147.291 52.9269 145.721 53.4147 143.89 53.4147C141.535 53.4147 139.704 52.683 138.134 51.2195C136.565 49.7561 136.041 48.2927 136.041 46.0976C136.041 43.9025 136.826 42.1952 138.396 40.7317C139.966 39.2683 141.797 38.5366 144.151 38.5366C146.244 38.5366 148.337 39.2683 149.645 40.7317C150.954 42.1952 152 43.9025 152 45.8537C152 46.3415 152 46.5854 152 47.0732Z" fill="black"/>
<path d="M37.4114 4.39024C32.4406 7.07317 27.4699 9.7561 22.4991 12.1951C21.7143 12.6829 20.9294 13.1707 20.1446 13.6585C20.1446 13.6585 20.1446 13.6585 19.883 13.6585C15.6971 13.4146 11.5112 13.1707 7.3253 12.9268C6.80207 12.9268 6.54045 12.9268 6.01721 12.9268L7.3253 18.0488C7.3253 18.0488 7.3253 18.0488 7.3253 18.2927C8.11015 18.2927 8.11015 19.0244 7.84854 19.7561C7.84854 19.7561 7.84854 19.7561 7.84854 20C8.37177 20.7317 8.89501 21.2195 9.41824 21.9512L6.01721 22.6829C6.01721 22.6829 6.01721 22.6829 6.01721 22.439C6.27883 21.7073 6.27883 20.7317 6.54045 20C6.54045 20 6.54045 20 6.54045 19.7561C5.75559 19.7561 5.75559 19.0244 6.27883 18.2927C6.27883 18.2927 6.27883 18.2927 6.27883 18.0488C5.75559 16.3415 5.23236 14.6341 4.97074 12.9268C4.97074 12.9268 4.97074 12.9268 4.70912 12.9268C3.13941 12.9268 1.56971 12.6829 0.261618 12.6829C0.261618 12.6829 0.261618 12.6829 0 12.6829C0.261618 12.1951 0.523236 11.9512 0.784854 11.9512C2.8778 10.2439 4.97074 8.78049 7.3253 7.07317C9.67986 5.36585 12.0344 3.65854 14.389 1.70732C14.9122 1.21951 15.6971 0.731707 16.4819 0C16.4819 0 16.4819 0 16.7435 0C20.6678 0.731707 24.3305 1.70732 28.2547 2.43902C31.1325 2.92683 34.2719 3.65854 37.4114 4.39024Z" fill="black"/>
<path d="M145.983 22.439C145.721 22.6829 145.46 22.6829 145.46 22.9268C143.89 24.1463 142.843 25.6097 141.535 27.3171C140.489 29.0244 139.442 30.9756 138.919 32.9268C138.919 32.9268 138.919 32.9268 138.657 33.1707C137.349 33.6585 135.78 34.1463 134.472 34.1463C133.948 34.1463 133.425 34.1463 132.902 34.1463C132.902 33.6585 133.164 33.4146 133.164 32.9268C133.948 30 134.995 27.0732 135.78 24.3902L136.303 22.439V22.1951C134.995 18.2927 133.687 14.6341 132.379 10.7317C132.379 10.7317 132.379 10.7317 132.379 10.4878H133.425C134.995 10.4878 136.826 10.7317 138.396 11.4634C138.396 11.4634 138.657 11.4634 138.657 11.7073C139.704 14.6341 141.274 17.3171 143.367 19.7561" fill="black"/>
</g>
<defs>
<clipPath id="clip0_183_121">
<rect width="152" height="60" fill="white"/>
</clipPath>
</defs>
</svg>
